<svg xmlns="http://www.w3.org/2000/svg" width="1600" height="1000" viewBox="0 0 1600 1000" role="img" aria-label="Industrial transformer supplying a sector">
  <defs>
    <linearGradient id="bg" x1="0" y1="0" x2="0" y2="1">
      <stop offset="0%" stop-color="#d9ecfa"/>
      <stop offset="100%" stop-color="#b8d9f2"/>
    </linearGradient>
  </defs>
  <rect width="1600" height="1000" fill="url(#bg)"/>
  <rect x="0" y="760" width="1600" height="240" fill="#d9e5ef"/>

  <rect x="420" y="260" width="500" height="360" rx="20" fill="#e8f2fb" stroke="#4a6d88" stroke-width="6"/>
  <circle cx="530" cy="440" r="64" fill="#d2e6f6" stroke="#4a6d88" stroke-width="6"/>
  <circle cx="810" cy="440" r="64" fill="#d2e6f6" stroke="#4a6d88" stroke-width="6"/>
  <rect x="470" y="320" width="400" height="40" rx="10" fill="#8fb6d4"/>

  <rect x="330" y="300" width="40" height="460" rx="8" fill="#4a6d88"/>
  <rect x="950" y="300" width="40" height="460" rx="8" fill="#4a6d88"/>
  <path d="M350 300 C520 180, 760 180, 970 300" fill="none" stroke="#2f5878" stroke-width="10"/>

  <path d="M990 420 C1160 380, 1290 420, 1450 500" fill="none" stroke="#21a675" stroke-width="10"/>
  <circle cx="1450" cy="500" r="16" fill="#21a675"/>
  <text x="1130" y="575" fill="#1f6f4a" font-size="34" font-family="Arial, sans-serif" font-weight="700">Sector Supply Active</text>

  <text x="70" y="940" fill="#245a7e" font-size="52" font-family="Arial, sans-serif" font-weight="700">Industrial Transformer Distribution - Sector Power Feed</text>
</svg>
