<svg xmlns="http://www.w3.org/2000/svg" width="1400" height="900" viewBox="0 0 1400 900" role="img" aria-label="Engineering project image fallback">
  <defs>
    <linearGradient id="g1" x1="0" y1="0" x2="1" y2="1">
      <stop offset="0%" stop-color="#0a1a2f"/>
      <stop offset="100%" stop-color="#123c64"/>
    </linearGradient>
    <linearGradient id="g2" x1="0" y1="0" x2="1" y2="0">
      <stop offset="0%" stop-color="#1aa0ff" stop-opacity="0"/>
      <stop offset="50%" stop-color="#1aa0ff" stop-opacity="0.9"/>
      <stop offset="100%" stop-color="#1aa0ff" stop-opacity="0"/>
    </linearGradient>
  </defs>
  <rect width="1400" height="900" fill="url(#g1)"/>
  <g opacity="0.25" stroke="#7ac9ff" stroke-width="1">
    <path d="M0 130 H1400"/>
    <path d="M0 260 H1400"/>
    <path d="M0 390 H1400"/>
    <path d="M0 520 H1400"/>
    <path d="M0 650 H1400"/>
    <path d="M0 780 H1400"/>
    <path d="M130 0 V900"/>
    <path d="M260 0 V900"/>
    <path d="M390 0 V900"/>
    <path d="M520 0 V900"/>
    <path d="M650 0 V900"/>
    <path d="M780 0 V900"/>
    <path d="M910 0 V900"/>
    <path d="M1040 0 V900"/>
    <path d="M1170 0 V900"/>
    <path d="M1300 0 V900"/>
  </g>
  <rect x="170" y="280" width="1060" height="340" rx="24" fill="#0a2038" stroke="#2ba3ff" stroke-opacity="0.35"/>
  <rect x="210" y="360" width="980" height="4" fill="url(#g2)"/>
  <rect x="210" y="440" width="980" height="4" fill="url(#g2)"/>
  <rect x="210" y="520" width="980" height="4" fill="url(#g2)"/>
  <circle cx="260" cy="320" r="14" fill="#3ec3ff"/>
  <circle cx="310" cy="320" r="14" fill="#3ec3ff"/>
  <circle cx="360" cy="320" r="14" fill="#3ec3ff"/>
  <text x="700" y="742" text-anchor="middle" fill="#a9deff" font-size="46" font-family="Arial, sans-serif" font-weight="700">Sokhulu &amp; Partners Engineering Projects</text>
</svg>
