<svg xmlns="http://www.w3.org/2000/svg" width="1600" height="1000" viewBox="0 0 1600 1000" role="img" aria-label="Mobile smart control turning kitchen light on and off">
  <defs>
    <linearGradient id="bg" x1="0" y1="0" x2="1" y2="1">
      <stop offset="0%" stop-color="#dff1ff"/>
      <stop offset="100%" stop-color="#bfe0f8"/>
    </linearGradient>
  </defs>
  <rect width="1600" height="1000" fill="url(#bg)"/>

  <rect x="880" y="170" width="600" height="700" rx="24" fill="#f7fbff" stroke="#8bb3d1" stroke-width="5"/>
  <rect x="960" y="300" width="420" height="420" rx="18" fill="#e7f3fc" stroke="#9ec0da" stroke-width="4"/>
  <rect x="1020" y="360" width="300" height="26" rx="8" fill="#9ec0da"/>
  <circle cx="1170" cy="530" r="86" fill="#ffe38a" opacity="0.9"/>
  <rect x="1144" y="464" width="52" height="116" rx="24" fill="#f5c54a"/>

  <rect x="180" y="180" width="470" height="760" rx="40" fill="#0f2235"/>
  <rect x="220" y="250" width="390" height="590" rx="24" fill="#e8f4fc"/>
  <text x="285" y="330" fill="#1f5d88" font-size="42" font-family="Arial, sans-serif" font-weight="700">Smart Kitchen</text>
  <rect x="270" y="380" width="290" height="84" rx="42" fill="#2fb875"/>
  <circle cx="518" cy="422" r="33" fill="#ffffff"/>
  <text x="298" y="435" fill="#ffffff" font-size="34" font-family="Arial, sans-serif" font-weight="700">LIGHT ON</text>
  <rect x="270" y="500" width="290" height="84" rx="42" fill="#cadcea"/>
  <circle cx="312" cy="542" r="33" fill="#ffffff"/>
  <text x="360" y="555" fill="#45708f" font-size="34" font-family="Arial, sans-serif" font-weight="700">LIGHT OFF</text>

  <path d="M650 430 C760 430, 820 470, 890 530" fill="none" stroke="#2b6e99" stroke-width="8" stroke-dasharray="12 10"/>
  <text x="70" y="940" fill="#245d82" font-size="52" font-family="Arial, sans-serif" font-weight="700">Residential Smart Power - Mobile Kitchen Light Control</text>
</svg>
